# xmcd
#
# Track frame offsets: 
#        150
#        13607
#        26404
#        41777
#        55825
#        71197
#        84455
#        97095
#        107664
#        119978
#        132279
#        143644
#        153711
#        164188
#        176812
#        189288
#        201495
#        213215
#        224661
#        238328
#        248871
#        262478
#        276943
#        289946
#        302867
#
# Disc length: 4196 seconds
#
# Revision: 2
# Processed by: cddbd v1.5.1PL0 Copyright (c) Steve Scherf et al.
# Submitted via: ExactAudioCopy v0.95a5
#
DISCID=9f106219
DTITLE=Various Artist - Black and White Piano Vol.1: 1923-1931
DYEAR=1900
DGENRE=
TTITLE0=Harry Jentes - Blooey Blues
TTITLE1=Pete Wendling - Papa Blues
TTITLE2=Clarence M. Jones - Modulation (Stepping on the Keys)
TTITLE3=Clarence M. Jones - Trot Along
TTITLE4=Clarence M. Jones - The Rosary
TTITLE5=Clarence M. Jones - Hula Lou
TTITLE6=Clarence M. Jones - Maybe (She'll Write Me, She'll 'Phone Me)
TTITLE7=Ezra Howlett Shelton - Dearest Darling
TTITLE8=Seger Ellis - Prairie Blues
TTITLE9=Seger Ellis - Sentimental Blues
TTITLE10=Seger Ellis - Ash Can Blues
TTITLE11=Seger Ellis - You'll Want Me Back Someday
TTITLE12=Seger Ellis - Poppin' 'Em Out
TTITLE13=George H. Tremer - Some of These Days
TTITLE14=Jacksonville Harmony Trio - Jacksonville Blues
TTITLE15=Jacksonville Harmony Trio - Them Piano Blues
TTITLE16=Sidney Williams - Mississippi Shivers
TTITLE17=Sidney Williams - Rag Doll
TTITLE18=Sidney Williams - St. Louis Blues
TTITLE19=Seger Ellis - Prairie Blues
TTITLE20=Seger Ellis - Sentimental Blues
TTITLE21=Seger Ellis - Shivery Stomp
TTITLE22=Seger Ellis - St. Louis Blues
TTITLE23=Lovin' Sam Theard - I'm Crazy 'Bout My Bozo
TTITLE24=Lovin' Sam Theard - That New Kinda Stuff
EXTD=
EXTT0=
EXTT1=
EXTT2=
EXTT3=
EXTT4=
EXTT5=
EXTT6=
EXTT7=
EXTT8=
EXTT9=
EXTT10=
EXTT11=
EXTT12=
EXTT13=
EXTT14=
EXTT15=
EXTT16=
EXTT17=
EXTT18=
EXTT19=
EXTT20=
EXTT21=
EXTT22=
EXTT23=
EXTT24=
PLAYORDER=
